<svg xmlns="http://www.w3.org/2000/svg" width="30.001" height="30" viewBox="0 0 30.001 30">
  <path id="shopping_cart" d="M1089.97,2024.576l-2.143-15a3,3,0,0,0-2.97-2.576H1082.5v-1.5a7.285,7.285,0,0,0-7.5-7.5,7.509,7.509,0,0,0-7.5,7.5v1.5h-1.9a3.506,3.506,0,0,0-3.429,2.576l-2.143,15A3,3,0,0,0,1063,2028h24A3,3,0,0,0,1089.97,2024.576ZM1070.5,2005.5a4.505,4.505,0,0,1,4.5-4.5,4.206,4.206,0,0,1,4.5,4.5v1.5h-9Zm14.771,19.5H1064.73a1.5,1.5,0,0,1-1.485-1.711l1.715-12a1.5,1.5,0,0,1,1.485-1.289h1.056v3a1.5,1.5,0,0,0,3,0v-3h9v3a1.5,1.5,0,0,0,3,0v-3h1.056a1.5,1.5,0,0,1,1.485,1.289l1.715,12A1.5,1.5,0,0,1,1085.271,2025Z" transform="translate(-1060 -1998)" fill="#fff"/>
</svg>
